<svg fill="#FFFFFF" xmlns="http://www.w3.org/2000/svg" xmlns:xlink="http://www.w3.org/1999/xlink" version="1.1" x="0px" y="0px" viewBox="0 0 100 100" enable-background="new 0 0 100 100" xml:space="preserve"><path fill="#FFFFFF" d="M60.8,37.6C60.9,38.8,62,47.1,62,52c0,1.1-0.9,2-2,2s-2-0.9-2-2c0-4.9-1.2-13.9-1.2-14c0-0.1,0-0.2,0-0.3  c0-0.5-0.4-0.8-0.8-0.8H44c-0.4,0-0.8,0.3-0.8,0.8c0,0.1,0,0.2,0,0.3c0,0.1-1.2,9-1.2,14c0,1.1-0.9,2-2,2s-2-0.9-2-2  c0-4.9,1.1-13.2,1.2-14.4c0.1-2.6,2.2-4.6,4.8-4.6h12C58.6,33,60.7,35.1,60.8,37.6z M43,23.1c0-3.9,3.1-7.1,7-7.1c3.8,0,7,3.2,7,7.1  c0,3.8-3.1,6.9-7,6.9C46.2,30,43,26.9,43,23.1z M47,23.1c0,1.6,1.3,2.9,3,2.9c1.6,0,3-1.3,3-2.9c0-1.7-1.4-3.1-3-3.1  C48.4,20,47,21.4,47,23.1z M54,51h-8c-1.1,0-2,0.9-2,2v20c0,1.1,0.9,2,2,2s2-0.9,2-2V55h4v18c0,1.1,0.9,2,2,2s2-0.9,2-2V53  C56,51.9,55.1,51,54,51z M91.7,44.6C91.7,42.1,89.6,40,87,40H75c-2.6,0-4.7,2.1-4.8,4.6C70.1,45.8,69,54.1,69,59c0,1.1,0.9,2,2,2  s2-0.9,2-2c0-4.9,1.2-13.9,1.2-14c0-0.1,0-0.2,0-0.3c0-0.4,0.3-0.8,0.8-0.8h12c0.3,0,0.8,0.3,0.8,0.8c0,0.1,0,0.2,0,0.3  c0,0.1,1.2,9,1.2,14c0,1.1,0.9,2,2,2s2-0.9,2-2C93,54.1,91.9,45.8,91.7,44.6z M74,30.1c0-3.9,3.1-7.1,7-7.1c3.8,0,7,3.2,7,7.1  c0,3.8-3.1,6.9-7,6.9C77.2,37,74,33.9,74,30.1z M78,30.1c0,1.6,1.3,2.9,3,2.9c1.6,0,3-1.3,3-2.9c0-1.7-1.4-3.1-3-3.1  C79.4,27,78,28.4,78,30.1z M85,58h-8c-1.1,0-2,0.9-2,2v20c0,1.1,0.9,2,2,2s2-0.9,2-2V62h4v18c0,1.1,0.9,2,2,2s2-0.9,2-2V60  C87,58.9,86.1,58,85,58z M27,40H15c-2.6,0-4.7,2.1-4.8,4.6C10.1,45.8,9,54.1,9,59c0,1.1,0.9,2,2,2s2-0.9,2-2c0-4.9,1.2-13.9,1.2-14  c0-0.1,0-0.2,0-0.3c0-0.4,0.3-0.8,0.8-0.8h12c0.3,0,0.8,0.3,0.8,0.8c0,0.1,0,0.2,0,0.3c0,0.1,1.2,9,1.2,14c0,1.1,0.9,2,2,2  s2-0.9,2-2c0-4.9-1.1-13.2-1.2-14.4C31.7,42.1,29.6,40,27,40z M14,30.1c0-3.9,3.1-7.1,7-7.1c3.8,0,7,3.2,7,7.1c0,3.8-3.1,6.9-7,6.9  C17.2,37,14,33.9,14,30.1z M18,30.1c0,1.6,1.3,2.9,3,2.9c1.6,0,3-1.3,3-2.9c0-1.7-1.4-3.1-3-3.1C19.4,27,18,28.4,18,30.1z M25,58h-8  c-1.1,0-2,0.9-2,2v20c0,1.1,0.9,2,2,2s2-0.9,2-2V62h4v18c0,1.1,0.9,2,2,2s2-0.9,2-2V60C27,58.9,26.1,58,25,58z"></path></svg>