<svg fill="#FFFFFF" xmlns="http://www.w3.org/2000/svg" xmlns:xlink="http://www.w3.org/1999/xlink" viewBox="0 0 100 100" version="1.1" x="0px" y="0px"><title>Arrow 41.1</title><desc>Created with Sketch.</desc><g stroke="none" stroke-width="1" fill="none" fill-rule="evenodd"><g fill="#FFFFFF"><path d="M60.0013569,65.4981559 L61.4989874,65.4981559 C62.6042612,65.4981559 63.0787707,66.2883083 62.5589457,67.2630107 L56.4413986,78.7337705 C55.9190231,79.713255 55.0787707,79.7084729 54.5589457,78.7337705 L48.4413986,67.2630107 C47.9190231,66.2835261 48.396133,65.4981559 49.5013569,65.4981559 L50.9989874,65.4981559 C52.1042612,65.4981559 53.0001721,64.6010878 53.0001721,63.4944983 L53.0001721,42.5010311 C53.0001721,41.3871646 53.8977881,40.4973735 55.0050536,40.4973735 L55.9952906,40.4973735 C57.1062723,40.4973735 58.0001721,41.3944415 58.0001721,42.5010311 L58.0001721,63.4944983 C58.0001721,64.6083648 58.896133,65.4981559 60.0013569,65.4981559 Z M39.9986431,34.4978429 L38.5010126,34.4978429 C37.3957388,34.4978429 36.9212293,33.7076905 37.4410543,32.7329881 L43.5586014,21.2622283 C44.0809769,20.2827437 44.9212293,20.2875259 45.4410543,21.2622283 L51.5586014,32.7329881 C52.0809769,33.7124727 51.603867,34.4978429 50.4986431,34.4978429 L49.0010126,34.4978429 C47.8957388,34.4978429 46.9998279,35.394911 46.9998279,36.5015005 L46.9998279,57.4949677 C46.9998279,58.6088342 46.1022119,59.4986253 44.9949464,59.4986253 L44.0047094,59.4986253 C42.8937277,59.4986253 41.9998279,58.6015572 41.9998279,57.4949677 L41.9998279,36.5015005 C41.9998279,35.387634 41.103867,34.4978429 39.9986431,34.4978429 Z"></path></g></g></svg>