<svg fill="#FFFFFF" xmlns:dc="http://purl.org/dc/elements/1.1/" xmlns:cc="http://creativecommons.org/ns#" xmlns:rdf="http://www.w3.org/1999/02/22-rdf-syntax-ns#" xmlns:svg="http://www.w3.org/2000/svg" xmlns="http://www.w3.org/2000/svg" xmlns:sodipodi="http://sodipodi.sourceforge.net/DTD/sodipodi-0.dtd" xmlns:inkscape="http://www.inkscape.org/namespaces/inkscape" version="1.1" x="0px" y="0px" viewBox="0 0 100 100"><g transform="translate(0,-952.36218)"><path style="font-size:medium;font-style:normal;font-variant:normal;font-weight:normal;font-stretch:normal;text-indent:0;text-align:start;text-decoration:none;line-height:normal;letter-spacing:normal;word-spacing:normal;text-transform:none;direction:ltr;block-progression:tb;writing-mode:lr-tb;text-anchor:start;baseline-shift:baseline;opacity:1;color:#000000;fill:#FFFFFF;fill-opacity:1;stroke:none;stroke-width:6;marker:none;visibility:visible;display:inline;overflow:visible;enable-background:accumulate;font-family:Sans;-inkscape-font-specification:Sans" d="M 29.6875 5 A 3.0003 3.0003 0 0 0 27.40625 9.5 C 29.835299 13.687826 32.840119 17.924262 36.5 21.15625 C 30.860785 24.687301 25.999512 30.097232 22.0625 35.96875 C 15.256208 46.11941 11 57.73895 11 66.03125 C 11 74.32365 15.679524 81.6888 22.78125 86.8125 C 29.882976 91.9362 39.473796 95 50 95 C 60.5262 95 70.117023 91.9362 77.21875 86.8125 C 84.320477 81.6888 89 74.32365 89 66.03125 C 89 57.73895 84.743793 46.11941 77.9375 35.96875 C 74.000488 30.097232 69.139215 24.687301 63.5 21.15625 C 67.159791 17.924576 70.164264 13.688537 72.59375 9.5 A 3.0003 3.0003 0 0 0 70 5 L 55 5 A 3.0003 3.0003 0 0 0 54.6875 5 A 3.0040663 3.0040663 0 1 0 55 11 L 64.25 11 C 62.113769 13.922085 59.823617 16.597555 57.4375 18.28125 C 55.061717 17.483231 52.579196 17 50 17 C 47.420803 17 44.938283 17.483231 42.5625 18.28125 C 40.176257 16.597228 37.886217 13.92194 35.75 11 L 45 11 A 3.0003 3.0003 0 1 0 45 5 L 30 5 A 3.0003 3.0003 0 0 0 29.6875 5 z M 50 23 C 58.346978 23 66.745606 30.03152 72.96875 39.3125 C 79.191894 48.5935 83 59.98755 83 66.03125 C 83 72.07505 79.61521 77.6608 73.6875 81.9375 C 67.75979 86.2142 59.35605 89 50 89 C 40.643944 89 32.240209 86.2142 26.3125 81.9375 C 20.384791 77.6608 17 72.07505 17 66.03125 C 17 59.98755 20.808107 48.5935 27.03125 39.3125 C 33.254393 30.03152 41.653016 23 50 23 z M 53.90625 39 C 46.739822 39 40.465012 43.093138 37.625 49 L 34 49 A 3.0003 3.0003 0 0 0 33.6875 49 A 3.0040663 3.0040663 0 1 0 34 55 L 36.0625 55 C 36.041993 55.332842 36 55.662002 36 56 C 36 56.337997 36.041993 56.667159 36.0625 57 L 34 57 A 3.0003 3.0003 0 0 0 33.6875 57 A 3.0040663 3.0040663 0 1 0 34 63 L 37.625 63 C 40.459207 68.920461 46.729639 73 53.90625 73 C 55.580136 73 57.227595 72.75835 58.78125 72.34375 A 3.0003 3.0003 0 1 0 57.21875 66.5625 C 56.174839 66.8411 55.066722 67 53.90625 67 C 50.146454 67 46.87947 65.432723 44.71875 63 L 49 63 A 3.0003 3.0003 0 1 0 49 57 L 42.0625 57 C 42.031057 56.67321 42 56.333706 42 56 C 42 55.656775 42.029259 55.335886 42.0625 55 L 49 55 A 3.0003 3.0003 0 1 0 49 49 L 44.71875 49 C 46.879466 46.567297 50.146441 45 53.90625 45 C 55.060428 45 56.168671 45.126 57.21875 45.40625 A 3.0003 3.0003 0 1 0 58.78125 39.625 C 57.233763 39.21201 55.58643 39 53.90625 39 z " transform="translate(0,952.36218)"></path></g></svg>