<svg fill="#FFFFFF" xmlns="http://www.w3.org/2000/svg" xmlns:xlink="http://www.w3.org/1999/xlink" version="1.0" x="0px" y="0px" viewBox="0 0 50 50" enable-background="new 0 0 50 50" xml:space="preserve"><path fill="#FFFFFF" d="M28.4,19.5h-2.1v-2.1c2.5-0.5,4.7-2.5,4.7-5.8c0-5.2-4.9-10.1-5.1-10.3C25.5,0.9,25,0.8,24.5,1  c-0.5,0.2-0.8,0.6-0.8,1.2c0,1.9-0.9,2.9-2,4.2c-1.3,1.4-2.7,3-2.7,5.8c0,2.8,1.9,4.9,4.7,5.4v2.1h-2.1c-4.4,0-6.5,2.1-6.5,6.5v21.8  c0,0.7,0.6,1.2,1.2,1.2h17.3c0.7,0,1.2-0.6,1.2-1.2V26C34.9,21.7,32.8,19.5,28.4,19.5z M21.5,12.1c0-1.9,0.9-2.9,2-4.2  c0.8-0.9,1.6-1.8,2.1-3c1.2,1.7,2.8,4.2,2.8,6.7c0,2.4-1.8,3.5-3.5,3.5C22.9,15.1,21.5,13.9,21.5,12.1z M32.4,46.6H17.6V26  c0-3,1.1-4,4-4h6.8c3,0,4,1.1,4,4V46.6z"></path></svg>