<svg fill="#FFFFFF" xmlns="http://www.w3.org/2000/svg" xmlns:xlink="http://www.w3.org/1999/xlink" version="1.1" x="0px" y="0px" viewBox="0 0 100 100" style="enable-background:new 0 0 100 100;" xml:space="preserve"><g><path d="M65.659,28.821c-4.585-4.343-10.603-6.543-16.92-6.2c-11.934,0.644-21.384,10.522-21.515,22.49   c-0.063,5.976,2.179,11.643,6.31,15.955c3.743,3.911,5.805,8.907,5.805,14.07v1.092c-0.002,0.151,0.008,0.304,0.041,0.458   c0.055,0.253,0.158,0.481,0.293,0.684c0.012,0.019,0.027,0.035,0.04,0.053c0.057,0.08,0.118,0.155,0.186,0.225   c0.027,0.028,0.056,0.053,0.084,0.079c0.058,0.054,0.119,0.104,0.183,0.151c0.04,0.029,0.08,0.056,0.122,0.082   c0.058,0.036,0.118,0.068,0.18,0.098c0.05,0.025,0.1,0.049,0.153,0.069c0.06,0.023,0.121,0.04,0.183,0.057   c0.057,0.016,0.112,0.034,0.171,0.045c0.067,0.012,0.136,0.015,0.204,0.021c0.054,0.004,0.105,0.016,0.16,0.016   c0.157,0,0.307-0.022,0.454-0.056l17.471-3.793c0.016-0.003,0.029-0.011,0.045-0.015c0.084-0.02,0.164-0.048,0.244-0.079   c0.045-0.017,0.092-0.033,0.135-0.053c0.069-0.033,0.134-0.072,0.198-0.112c0.047-0.029,0.095-0.056,0.139-0.089   c0.057-0.042,0.108-0.09,0.16-0.138c0.043-0.039,0.087-0.076,0.126-0.119c0.048-0.052,0.089-0.11,0.132-0.167   c0.034-0.046,0.069-0.089,0.098-0.138c0.037-0.061,0.068-0.126,0.098-0.191c0.025-0.052,0.051-0.103,0.071-0.158   c0.024-0.065,0.041-0.132,0.058-0.2c0.016-0.061,0.032-0.121,0.042-0.184c0.004-0.023,0.013-0.045,0.016-0.068   c0.526-4.277,2.503-8.384,5.563-11.562c4.119-4.254,6.388-9.86,6.388-15.783C72.777,39.042,70.249,33.168,65.659,28.821z    M63.513,58.365c-3.321,3.448-5.559,7.818-6.421,12.429l-13.795,2.995c-0.329-5.712-2.737-11.168-6.872-15.489   c-3.405-3.553-5.251-8.222-5.199-13.145c0.107-9.865,7.896-18.008,17.73-18.539c5.218-0.288,10.174,1.53,13.954,5.11   c3.784,3.583,5.868,8.426,5.868,13.635C68.777,50.24,66.909,54.857,63.513,58.365z"></path><path d="M58.33,76.232l-17.506,3.8c-1.08,0.234-1.765,1.299-1.53,2.379c0.203,0.937,1.031,1.576,1.952,1.576   c0.141,0,0.283-0.015,0.426-0.046l17.506-3.8c1.08-0.234,1.765-1.299,1.53-2.379C60.474,76.683,59.406,76,58.33,76.232z"></path><path d="M60.794,83.487c-0.233-1.079-1.295-1.763-2.379-1.53l-17.506,3.801c-1.079,0.234-1.764,1.299-1.529,2.379   c0.203,0.937,1.031,1.576,1.952,1.576c0.141,0,0.283-0.015,0.427-0.046l17.506-3.801C60.344,85.632,61.028,84.567,60.794,83.487z"></path><path d="M56.822,89.03c0.108-0.821-0.471-1.575-1.292-1.683c-0.82-0.106-1.574,0.47-1.683,1.292C53.596,90.555,51.939,92,49.996,92   c-1.037,0-2.015-0.407-2.754-1.146c-0.208-0.208-0.382-0.428-0.517-0.652c-0.427-0.711-1.35-0.94-2.058-0.514   c-0.711,0.426-0.941,1.348-0.515,2.058c0.261,0.435,0.586,0.848,0.968,1.23C46.427,94.281,48.158,95,49.996,95   C53.439,95,56.374,92.434,56.822,89.03z"></path><path d="M11.92,46.081h9.332c0.828,0,1.5-0.671,1.5-1.5s-0.672-1.5-1.5-1.5H11.92c-0.828,0-1.5,0.671-1.5,1.5   S11.092,46.081,11.92,46.081z"></path><path d="M88.08,43.081h-9.332c-0.828,0-1.5,0.671-1.5,1.5s0.672,1.5,1.5,1.5h9.332c0.828,0,1.5-0.671,1.5-1.5   S88.908,43.081,88.08,43.081z"></path><path d="M48.5,6.5v9.332c0,0.829,0.672,1.5,1.5,1.5s1.5-0.671,1.5-1.5V6.5C51.5,5.671,50.828,5,50,5S48.5,5.671,48.5,6.5z"></path><path d="M77.987,16.593c-0.586-0.586-1.535-0.586-2.121,0l-6.599,6.599c-0.586,0.585-0.586,1.536,0,2.121   c0.293,0.293,0.677,0.439,1.061,0.439s0.768-0.146,1.061-0.439l6.599-6.599C78.573,18.128,78.573,17.178,77.987,16.593z"></path><path d="M23.073,73.007c0.384,0,0.768-0.146,1.061-0.439l6.599-6.599c0.586-0.585,0.586-1.536,0-2.121   c-0.586-0.586-1.535-0.586-2.121,0l-6.599,6.599c-0.586,0.585-0.586,1.536,0,2.121C22.306,72.861,22.689,73.007,23.073,73.007z"></path><path d="M22.013,18.714l6.599,6.599c0.293,0.293,0.677,0.439,1.061,0.439s0.768-0.146,1.061-0.439c0.586-0.585,0.586-1.536,0-2.121   l-6.599-6.599c-0.586-0.586-1.535-0.586-2.121,0C21.427,17.178,21.427,18.128,22.013,18.714z"></path><path d="M77.987,70.447l-6.599-6.599c-0.586-0.586-1.535-0.586-2.121,0c-0.586,0.585-0.586,1.536,0,2.121l6.599,6.599   c0.293,0.293,0.677,0.439,1.061,0.439s0.768-0.146,1.061-0.439C78.573,71.982,78.573,71.032,77.987,70.447z"></path><path d="M56.111,49.369c-0.723-0.493-1.661-0.5-2.392-0.019l-2.604,1.716c-0.678,0.445-1.551,0.445-2.229,0l-2.604-1.716   c-0.73-0.481-1.67-0.474-2.395,0.021c-0.722,0.494-1.07,1.366-0.889,2.22l2.74,12.917v5.473c0,0.829,0.672,1.5,1.5,1.5   s1.5-0.671,1.5-1.5v-4.15h2.52v2.95c0,0.829,0.672,1.5,1.5,1.5s1.5-0.671,1.5-1.5v-4.264l2.743-12.926   C57.184,50.733,56.834,49.862,56.111,49.369z M48.452,62.83l-2.086-9.833l0.87,0.573c1.68,1.107,3.85,1.106,5.529,0l0.871-0.574   L51.55,62.83H48.452z"></path><path d="M50.009,32.087c1.574,0,3.114,0.274,4.578,0.814c0.171,0.063,0.347,0.093,0.52,0.093c0.61,0,1.184-0.375,1.407-0.981   c0.287-0.777-0.11-1.64-0.888-1.927c-1.798-0.664-3.688-1-5.617-1c-0.828,0-1.5,0.671-1.5,1.5S49.181,32.087,50.009,32.087z"></path><path d="M60.739,33.138c-0.621-0.548-1.57-0.486-2.116,0.136c-0.548,0.622-0.486,1.57,0.136,2.117   c2.162,1.902,3.671,4.49,4.247,7.287c0.146,0.709,0.771,1.198,1.467,1.198c0.101,0,0.202-0.01,0.305-0.031   c0.812-0.167,1.334-0.96,1.166-1.771C65.237,38.641,63.389,35.468,60.739,33.138z"></path></g></svg>