<svg fill="#FFFFFF" xmlns="http://www.w3.org/2000/svg" viewBox="0 0 52 68" x="0px" y="0px"><path fill="#FFFFFF" d="M432,669.981863 L432,669.981863 C432.204764,669.909985 432.417233,669.837856 432.637181,669.765872 C439.226308,667.609431 446.293945,667.609431 452.957704,671.244209 C458.516167,674.276098 464.485567,674.276098 470.118663,672.432539 C470.941934,672.163105 471.67998,671.875554 472.319182,671.590291 C472.689239,671.425141 472.934732,671.30288 473.042296,671.244209 C474.375045,670.517255 476,671.481882 476,673 L476,703 C476,703.731888 475.600226,704.405325 474.957704,704.755791 C474.245348,705.144349 473.015137,705.693369 471.362819,706.234128 C464.773692,708.390569 457.706055,708.390569 451.042296,704.755791 C445.483833,701.723902 439.514433,701.723902 433.881337,703.567461 C433.191765,703.793139 432.561985,704.031527 432,704.270635 L432,722 C432,723.104569 431.104569,724 430,724 C428.895431,724 428,723.104569 428,722 L428,667.658589 C425.669615,666.834916 424,664.612438 424,662 C424,658.686292 426.686292,656 430,656 C433.313708,656 436,658.686292 436,662 C436,664.612438 434.330385,666.834916 432,667.658589 L432,669.981863 Z M430,664 C431.104569,664 432,663.104569 432,662 C432,660.895431 431.104569,660 430,660 C428.895431,660 428,660.895431 428,662 C428,663.104569 428.895431,664 430,664 Z M432,699.981863 C432.204764,699.909985 432.417233,699.837856 432.637181,699.765872 C439.226308,697.609431 446.293945,697.609431 452.957704,701.244209 C458.516167,704.276098 464.485567,704.276098 470.118663,702.432539 C470.808235,702.206861 471.438015,701.968473 472,701.729365 L472,676.018137 C471.795236,676.090015 471.582767,676.162144 471.362819,676.234128 C464.773692,678.390569 457.706055,678.390569 451.042296,674.755791 C445.483833,671.723902 439.514433,671.723902 433.881337,673.567461 C433.191765,673.793139 432.561985,674.031527 432,674.270635 L432,699.981863 Z" transform="translate(-424 -656)"></path></svg>