<svg fill="#FFFFFF" xmlns="http://www.w3.org/2000/svg" xmlns:xlink="http://www.w3.org/1999/xlink" viewBox="0 0 24 24" version="1.1" x="0px" y="0px"><title>Medical 24px - Outline - 074 - DNA</title><desc>Created with Sketch.</desc><g stroke="none" stroke-width="1" fill="none" fill-rule="evenodd"><g transform="translate(-1.000000, 0.000000)" fill-rule="nonzero" fill="#FFFFFF"><path d="M2.98926,12.06934 C0.64014,14.33934 0.35108,18.45752 2.17578,23.66553 C2.24599191,23.8658984 2.43514607,24.0000283 2.64746,24 C2.70385225,24.0001201 2.75984507,23.9905405 2.81299,23.97168 C3.07344471,23.8802079 3.21048941,23.5949678 3.11914,23.33447 C1.45605,18.58647 1.66214,14.74267 3.68408,12.78857 C5.54346,10.99267 8.81396,10.87744 12.89502,12.46582 C17.32275,14.18994 20.92529,14.01221 23.04248,11.96875 C25.37158,9.71775 25.64111,5.58643 23.80127,0.33447 C23.7421336,0.165954967 23.5975876,0.041789541 23.4220811,0.00874563754 C23.2465747,-0.024298266 23.0667713,0.0387995076 22.9504011,0.174270638 C22.834031,0.309741767 22.7987736,0.497004967 22.85791,0.66552 C24.53613,5.45652 24.3501,9.31445 22.34766,11.24952 C20.52832,13.00636 17.30079,13.10792 13.25733,11.53419 C8.793,9.79639 5.145,9.98633 2.98926,12.06934 Z"></path><path d="M21.88818,1.41895 C21.9248439,1.4274509 21.9623635,1.43170885 22,1.43164 C22.2542952,1.43133252 22.467844,1.240184 22.4962144,0.98747613 C22.5245849,0.734768259 22.3587367,0.501026452 22.11084,0.44434 C21.76172,0.36478 21.4200867,0.295766667 21.08594,0.2373 C20.8138431,0.190107268 20.5550077,0.372428111 20.507815,0.644525 C20.4606223,0.916621889 20.6429431,1.17545727 20.91504,1.22265 C21.23242,1.27783 21.5568,1.34326333 21.88818,1.41895 Z"></path><path d="M19.02051,0.01074 C18.66065,-0.00391 18.31446,-0.00342 17.97803,0.01123 C17.7065893,0.0232509777 17.4944289,0.249839191 17.5002667,0.521483196 C17.5061044,0.793127201 17.7278035,1.01039154 17.99951,1.01074 L18.02197,1.01025 C18.33203,0.99707 18.65185,0.99755 18.98047,1.00976 C19.1596229,1.01805486 19.3294919,0.92974568 19.425622,0.778340336 C19.5217522,0.626934991 19.5294118,0.435636018 19.4456945,0.277029576 C19.3619773,0.118423134 19.1997126,0.0168153084 19.02047,0.01076 L19.02051,0.01074 Z"></path><path d="M15.86572,0.33154 C15.4974469,0.432776265 15.1378926,0.563405617 14.79052,0.72217 C14.5397275,0.837597513 14.4299925,1.1344775 14.54542,1.38527 C14.6608475,1.6360625 14.9577275,1.74579751 15.20852,1.63037 C15.5073979,1.49431321 15.8166435,1.38229192 16.13332,1.29537 C16.3994854,1.22147982 16.5553552,0.945810351 16.481465,0.679645 C16.4075748,0.413479649 16.1319054,0.257609823 15.86574,0.3315 L15.86572,0.33154 Z"></path><path d="M12.82373,2.17139 C12.5203246,2.52170474 12.2615146,2.90827895 12.05322,3.32227 C11.9727995,3.48180159 11.983597,3.67211868 12.0815452,3.82153065 C12.1794933,3.97094263 12.3497115,4.05675027 12.5280802,4.04663065 C12.7064488,4.03651104 12.8658695,3.93200159 12.94629,3.77247 C13.1168968,3.43242772 13.3293149,3.11503017 13.57861,2.82765 C13.6965824,2.69289998 13.7334971,2.50535406 13.6753919,2.33594671 C13.6172868,2.16653935 13.4730324,2.04113272 13.2971892,2.00715865 C13.1213461,1.97318459 12.9407588,2.03582968 12.82373,2.1714 L12.82373,2.17139 Z"></path><path d="M11.418,5.43262 C11.3709914,5.78458291 11.345391,6.13907481 11.34134,6.49414 C11.3378495,6.77027579 11.5588546,6.99696669 11.83499,7.00049 L11.84134,7.00049 C12.1150214,7.00051207 12.3378642,6.78049936 12.34134,6.50684 C12.3445111,6.19258767 12.367178,5.87883486 12.40921,5.56739 C12.4450917,5.29437216 12.2535453,5.04370391 11.9806902,5.00660513 C11.7078351,4.96950635 11.4563151,5.15993303 11.418,5.43262 L11.418,5.43262 Z"></path><path d="M11.92529,8.00684 C11.7945739,8.02914379 11.6780927,8.10251356 11.6015213,8.21077709 C11.5249499,8.31904062 11.4945743,8.45331018 11.51709,8.58399 C11.57471,8.92041667 11.64714,9.26612 11.73438,9.6211 C11.7893089,9.84429674 11.9893837,10.0012543 12.21924,10.00147 C12.2597351,10.0016292 12.3000902,9.99670747 12.33936,9.98682 C12.4681365,9.95517485 12.5790458,9.87362437 12.6476467,9.76013991 C12.7162476,9.64665544 12.7369098,9.510551 12.70508,9.38182 C12.62354,9.05125333 12.5559933,8.72898667 12.50244,8.41502 C12.4802285,8.28425866 12.4068795,8.16771728 12.2985905,8.09113162 C12.1903014,8.01454596 12.0559806,7.98421619 11.92529,8.00684 L11.92529,8.00684 Z"></path><path d="M13.70117,14.01367 C13.4323747,14.076862 13.2656189,14.3458975 13.32861,14.61474 C13.4057567,14.9443267 13.4693967,15.2656167 13.51953,15.57861 C13.5580595,15.8211639 13.767105,15.9997832 14.0127,16 C14.039196,16.0000507 14.0656514,15.9979269 14.0918,15.99365 C14.2227359,15.9728268 14.3400305,15.9008256 14.4178643,15.7934957 C14.495698,15.6861658 14.5276907,15.5523051 14.5068,15.42138 C14.4530867,15.0849533 14.38489,14.7399 14.30221,14.38622 C14.2721415,14.2569793 14.1918417,14.145034 14.0790581,14.075126 C13.9662745,14.0052179 13.8302938,13.9831034 13.70117,14.01367 Z"></path><path d="M13.65527,17.4873 C13.6475492,17.8013348 13.6204812,18.1145953 13.57422,18.4253 C13.5543052,18.556369 13.5873241,18.6899778 13.6660002,18.7966818 C13.7446762,18.9033859 13.862552,18.9744273 13.99365,18.99415 C14.0185302,18.9980199 14.0436706,18.9999756 14.06885,19 C14.3158901,18.9997123 14.5256631,18.8189884 14.5625,18.57471 C14.615265,18.2232938 14.6462475,17.8689509 14.65527,17.51371 C14.66254,17.2375711 14.4445884,17.007818 14.16845,17.00053 C13.899846,17.0118944 13.680797,17.2196703 13.65527,17.4873 L13.65527,17.4873 Z"></path><path d="M13.05225,20.13477 C12.9243125,20.3937996 12.7729663,20.640593 12.6001,20.87207 C12.4360081,21.0932379 12.4815587,21.405442 12.7020021,21.5705061 C12.9224454,21.7355701 13.234847,21.6913945 13.40088,21.47168 C13.6098338,21.1913329 13.7928798,20.8925778 13.94776,20.5791 C14.0704611,20.3318117 13.9694633,20.0318761 13.722175,19.909175 C13.4748867,19.7864739 13.1749511,19.8874717 13.05225,20.13476 L13.05225,20.13477 Z"></path><path d="M11.26758,22.07275 C10.9637036,22.2550308 10.6434661,22.4085307 10.31104,22.53125 C10.0841512,22.6154675 9.95015038,22.8500928 9.99289181,23.0883034 C10.0356332,23.326514 10.2428453,23.4999165 10.48486,23.5 C10.5442109,23.5001188 10.6030967,23.4895327 10.65869,23.46875 C11.0503657,23.3244605 11.4275291,23.1434793 11.78515,22.92822 C11.9382429,22.8358938 12.0303818,22.6688441 12.0268011,22.490102 C12.0232203,22.3113599 11.924465,22.1481345 11.7677973,22.0620137 C11.6111296,21.9758929 11.4203983,21.9799865 11.26757,22.07275 L11.26758,22.07275 Z"></path><path d="M7.49609,22.99951 C7.31745721,23.0002942 7.15281206,23.0963183 7.0641748,23.2514109 C6.97553754,23.4065036 6.97637427,23.5971025 7.0663698,23.7514109 C7.15636533,23.9057194 7.32184721,24.0002942 7.50048,23.99951 L7.50487,23.99951 C7.86522333,23.9965833 8.21402,23.9778667 8.55126,23.94336 C8.8260548,23.915315 9.02608502,23.6698148 8.99804,23.39502 C8.96999498,23.1202252 8.7244948,22.920195 8.4497,22.94824 C8.14306667,22.9794933 7.82519667,22.9965833 7.49609,22.99951 Z"></path><path d="M4.59766,22.70313 C4.42222485,22.6675339 4.24114754,22.7284669 4.12292129,22.8628809 C4.00469503,22.9972949 3.96737024,23.1846681 4.02506515,23.3541257 C4.08276006,23.5235832 4.22666601,23.6492531 4.40235,23.6836 C4.75293667,23.7534267 5.09587333,23.81137 5.43116,23.85743 C5.45395676,23.860734 5.47696513,23.8623617 5.5,23.8623 C5.76269074,23.8620283 5.98035948,23.6584886 5.99823422,23.3964065 C6.01610895,23.1343245 5.82809128,22.9031158 5.56787,22.86718 C5.25244333,22.82324 4.92904,22.7685567 4.59766,22.70313 Z"></path><path d="M4.11572,14.26318 C3.9390474,14.4754892 3.96768513,14.7907682 4.17972,14.96777 L10.67972,20.38427 C10.8169599,20.4991553 11.0051192,20.5319711 11.1731468,20.4703258 C11.3411745,20.4086805 11.4634687,20.2619668 11.4938498,20.0855854 C11.524231,19.9092039 11.45807,19.7300294 11.32035,19.61572 L4.82035,14.19922 C4.60804529,14.0225107 4.29273677,14.0511316 4.11572,14.26318 Z"></path><path d="M3.11572,18.67969 C2.9390474,18.8919992 2.96768513,19.2072782 3.17972,19.38428 L6.17972,21.88428 C6.31695993,21.9991653 6.50511918,22.0319811 6.67314683,21.9703358 C6.84117447,21.9086905 6.96346867,21.7619768 6.99384982,21.5855954 C7.02423097,21.4092139 6.95807,21.2300394 6.82035,21.11573 L3.82035,18.61573 C3.60805238,18.438998 3.2927257,18.4676205 3.11572,18.67969 L3.11572,18.67969 Z"></path><path d="M12.32031,15.11572 L9.32031,12.61572 C9.18311799,12.5003972 8.99471637,12.4672751 8.82641754,12.5288909 C8.65811871,12.5905066 8.53563897,12.7374452 8.50533843,12.9140886 C8.4750379,13.0907319 8.54154654,13.2700887 8.67969,13.38427 L11.67969,15.88427 C11.8169299,15.9991553 12.0050892,16.0319711 12.1731168,15.9703258 C12.3411445,15.9086805 12.4634387,15.7619668 12.4938198,15.5855854 C12.524201,15.4092039 12.45804,15.2300294 12.32032,15.11572 L12.32031,15.11572 Z"></path><path d="M14.61572,3.76318 C14.4390474,3.97548924 14.4676851,4.29076822 14.67972,4.46777 L21.17972,9.88427 C21.392005,10.0604692 21.7068624,10.0315552 21.8835059,9.81963976 C22.0601494,9.60772434 22.031895,9.29280701 21.82035,9.11572 L15.32035,3.69922 C15.1078953,3.52299319 14.7929712,3.55157919 14.61572,3.76318 Z"></path><path d="M13.61572,8.17969 C13.4390474,8.39199924 13.4676851,8.70727822 13.67972,8.88428 L16.67972,11.38428 C16.892005,11.5604792 17.2068624,11.5315652 17.3835059,11.3196498 C17.5601494,11.1077343 17.531895,10.792817 17.32035,10.61573 L14.32035,8.11573 C14.1080382,7.9390435 13.7927478,7.96766273 13.61572,8.17969 L13.61572,8.17969 Z"></path><path d="M19.11572,2.17969 C18.9390474,2.39199924 18.9676851,2.70727822 19.17972,2.88428 L22.17972,5.38428 C22.392005,5.56047924 22.7068624,5.53156518 22.8835059,5.31964976 C23.0601494,5.10773434 23.031895,4.79281701 22.82035,4.61573 L19.82035,2.11573 C19.6080524,1.93899796 19.2927257,1.96762049 19.11572,2.17969 L19.11572,2.17969 Z"></path></g></g></svg>