<svg fill="#FFFFFF" xmlns:dc="http://purl.org/dc/elements/1.1/" xmlns:cc="http://creativecommons.org/ns#" xmlns:rdf="http://www.w3.org/1999/02/22-rdf-syntax-ns#" xmlns:svg="http://www.w3.org/2000/svg" xmlns="http://www.w3.org/2000/svg" xmlns:sodipodi="http://sodipodi.sourceforge.net/DTD/sodipodi-0.dtd" xmlns:inkscape="http://www.inkscape.org/namespaces/inkscape" version="1.1" x="0px" y="0px" viewBox="0 0 100 100"><g transform="translate(0,-952.36218)"><path style="font-size:medium;font-style:normal;font-variant:normal;font-weight:normal;font-stretch:normal;text-indent:0;text-align:start;text-decoration:none;line-height:normal;letter-spacing:normal;word-spacing:normal;text-transform:none;direction:ltr;block-progression:tb;writing-mode:lr-tb;text-anchor:start;baseline-shift:baseline;opacity:1;color:#000000;fill:#FFFFFF;fill-opacity:1;stroke:none;stroke-width:6;marker:none;visibility:visible;display:inline;overflow:visible;enable-background:accumulate;font-family:Sans;-inkscape-font-specification:Sans" d="M 52.84375 20 A 3.0003 3.0003 0 0 0 51.78125 20.28125 L 35.46875 28 L 8 28 A 3.0003 3.0003 0 0 0 7.6875 28 A 3.0003 3.0003 0 0 0 5 31 L 5 59 A 3.0003 3.0003 0 0 0 8 62 L 19.59375 62 C 20.124056 63.295595 20.982044 64.430115 22.0625 65.28125 C 22.348807 65.50685 26.120892 68.54565 29.8125 71.53125 C 31.658304 73.02405 33.522916 74.53845 34.96875 75.71875 C 36.414584 76.89915 37.668991 77.9443 37.59375 77.875 C 39.015819 79.1855 40.925747 80 43 80 C 44.458969 80 45.847136 79.60275 47.03125 78.90625 C 48.453791 79.704534 49.967379 80 51 80 C 54.221955 80 58.040097 78.7057 62.375 77.0625 C 66.709903 75.4193 71.200179 73.34575 74.46875 71.46875 C 75.494776 70.87945 76.552045 70.19815 77.4375 69.15625 C 78.322955 68.11445 79.000836 66.6111 79 65 C 78.999638 64.3018 78.895027 63.1747 78.5625 62 L 92 62 A 3.0003 3.0003 0 0 0 95 59 L 95 31 A 3.0003 3.0003 0 0 0 92 28 L 71.65625 28 L 54.28125 20.25 A 3.0003 3.0003 0 0 0 52.84375 20 z M 53.09375 26.28125 L 69.78125 33.71875 A 3.0003 3.0003 0 0 0 71 34 L 89 34 L 89 56 L 74.375 56 L 56.28125 35.03125 A 3.0003 3.0003 0 0 0 53.1875 34.09375 C 53.1875 34.09375 49.572274 35.1074 45.875 36.125 C 44.026363 36.6338 42.150189 37.15695 40.71875 37.53125 C 40.003031 37.7184 39.389579 37.86887 38.96875 37.96875 C 38.88512 37.98865 38.848393 37.9849 38.78125 38 C 37.35306 37.87128 36.519008 37.02156 36.21875 36.03125 C 35.904795 34.99577 35.95352 34.41627 37.03125 33.90625 L 53.09375 26.28125 z M 11 34 L 30.3125 34 C 30.075525 35.271052 30.141751 36.568426 30.5 37.75 C 31.495137 41.03215 34.59192 43.90734 38.71875 44.0625 C 39.610653 44.096 39.481743 44.00965 39.6875 43.96875 C 39.893257 43.92775 40.092432 43.87215 40.34375 43.8125 C 40.846386 43.69321 41.510486 43.53712 42.25 43.34375 C 43.729028 42.957 45.607231 42.44985 47.46875 41.9375 C 50.255295 41.17056 51.76893 40.74401 52.96875 40.40625 L 72.65625 63.21875 C 73.284583 63.94735 72.999211 63.4803 73 65 C 73.000055 65.1052 73.03403 65.026 72.84375 65.25 C 72.653469 65.4739 72.194322 65.88255 71.5 66.28125 C 68.668387 67.90735 64.310332 69.8984 60.25 71.4375 C 56.189668 72.9766 52.074521 74 51 74 C 50.855805 74 50.796781 74.024695 50.71875 74.03125 C 50.892382 73.380697 51 72.70146 51 72 C 51 69.5081 49.839141 67.24525 48.03125 65.78125 C 47.586338 65.42105 43.910796 62.4539 40.1875 59.4375 C 36.464204 56.4211 32.398343 53.09845 32.25 52.96875 C 30.84644 51.74215 28.998571 51 27 51 C 23.677374 51 20.793896 53.084603 19.59375 56 L 11 56 L 11 34 z M 27 57 C 27.519899 57 27.95787 57.19 28.3125 57.5 C 29.212863 58.2869 32.67872 61.07395 36.40625 64.09375 C 40.13378 67.11355 43.835971 70.1022 44.25 70.4375 C 44.706111 70.8068 45 71.3517 45 72 C 45 73.1401 44.140104 74 43 74 C 42.460415 74 42.015797 73.80015 41.65625 73.46875 C 41.085307 72.94265 40.208681 72.2533 38.75 71.0625 C 37.291319 69.8717 35.443679 68.3711 33.59375 66.875 C 29.893892 63.8827 26.314467 61.0071 25.75 60.5625 C 25.281959 60.1938 25 59.6582 25 59 C 25 57.8599 25.859896 57 27 57 z " transform="translate(0,952.36218)"></path></g></svg>