<svg fill="#FFFFFF" xmlns="http://www.w3.org/2000/svg" xmlns:xlink="http://www.w3.org/1999/xlink" version="1.1" x="0px" y="0px" viewBox="0 0 100 100" enable-background="new 0 0 100 100" xml:space="preserve"><path d="M38.453,94.536c-3.033,0-6.726-2.891-8.095-4.259l-0.081-0.082c-2.459-2.459-6.355-7.881-3.466-10.77l11.225-11.992  c0.18-0.193,0.402-0.343,0.649-0.438c2.935-1.129,6.496-2.872,7.119-3.665c0.277-0.353,2.793-3.459,5.606-3.628  c0.448-0.027,0.882,0.019,1.29,0.135c-0.256-0.279-0.484-0.526-0.679-0.738c-5.154,1.546-10.917,0.026-14.984-4.042  c-3.037-3.037-4.395-8.021-3.633-13.333c0.094-0.656,0.551-1.203,1.179-1.412c0.63-0.208,1.322-0.045,1.791,0.423l6.177,6.176  l6.641-0.581l0.535-6.585l-6.166-6.167c-0.469-0.469-0.632-1.162-0.423-1.791c0.209-0.628,0.756-1.085,1.412-1.179  c5.281-0.756,10.251,0.605,13.29,3.645c4.067,4.066,5.513,9.911,3.851,15.193c0.237,0.215,0.516,0.468,0.831,0.754l10.929-10.929  l-0.257-0.254c-0.365-0.361-0.554-0.864-0.515-1.376c0.039-0.512,0.3-0.981,0.715-1.284l7.999-5.822  c0.696-0.505,1.657-0.431,2.266,0.176l6.164,6.148c0.625,0.624,0.688,1.615,0.146,2.313l-6.011,7.734  c-0.304,0.391-0.758,0.635-1.251,0.671c-0.491,0.041-0.979-0.137-1.337-0.478l-0.265-0.252L70.485,57.469  c7.5,6.853,16.863,15.423,18.53,16.949c2.075,1.908,3.295,4.5,3.351,7.112c0.047,2.246-0.768,4.323-2.294,5.849  c-1.526,1.526-3.617,2.344-5.848,2.293c-2.612-0.055-5.204-1.275-7.109-3.348c-0.605-0.657-9.21-9.985-16.338-17.718  c0.002,0.105,0.001,0.211-0.005,0.317c-0.127,2.363-2.325,4.469-3.624,5.515c-0.747,0.602-1.589,2.627-2.205,4.106  c-0.617,1.484-1.149,2.765-1.834,3.551C51.036,84.476,41.472,93.133,41.066,93.5C40.328,94.239,39.424,94.536,38.453,94.536z   M40.319,70.115L29.326,81.858c-0.277,0.693,1.16,3.596,3.43,5.866l0.081,0.081c2.103,2.102,5.17,3.501,5.829,3.151  c3.439-3.115,10.254-9.38,11.805-11.161c0.311-0.356,0.826-1.598,1.241-2.595c0.885-2.128,1.8-4.329,3.242-5.49  c1.332-1.072,2.287-2.295,2.324-2.976c0.004-0.081,0.01-0.18-0.172-0.361c-0.328-0.329-0.513-0.773-0.513-1.238  c0-0.464,0.185-0.909,0.513-1.237l0.612-0.613c-0.919-0.998-1.78-1.932-2.556-2.774l-0.797,0.797c-0.684,0.684-1.791,0.684-2.475,0  c-0.11-0.11-0.167-0.118-0.27-0.113c-0.78,0.047-2.24,1.248-3.063,2.296C47.137,67.3,42.291,69.339,40.319,70.115z M79.689,83.953  c1.266,1.376,2.945,2.185,4.608,2.22c0.911,0.029,2.216-0.186,3.3-1.269c1.083-1.084,1.288-2.393,1.269-3.301  c-0.035-1.664-0.843-3.342-2.217-4.606c-7.573-6.932-27.396-25.067-28.134-25.698c-0.575-0.492-0.776-1.302-0.489-2.002  c1.754-4.264,0.709-9.196-2.661-12.566c-1.544-1.544-3.831-2.497-6.461-2.756l3.87,3.87c0.363,0.363,0.548,0.867,0.507,1.379  l-0.721,8.864c-0.069,0.851-0.742,1.527-1.591,1.602l-8.925,0.781c-0.52,0.045-1.024-0.14-1.39-0.506l-3.893-3.892  c0.251,2.657,1.203,4.962,2.751,6.511c3.385,3.386,8.243,4.509,12.375,2.86c0.687-0.273,1.472-0.087,1.961,0.468  C54.049,56.138,74.704,78.547,79.689,83.953z M65.112,52.563c0.847,0.772,1.786,1.629,2.787,2.543l11.937-11.937  c0.672-0.672,1.756-0.684,2.444-0.03l0.1,0.095l3.875-4.986l-4.011-4.001l-5.125,3.731l0.044,0.043  c0.332,0.328,0.519,0.774,0.52,1.24s-0.183,0.913-0.513,1.243L65.112,52.563z M26.954,73.713c-0.263,0-0.53-0.06-0.782-0.186  c-1.976-0.989-3.38-3.398-3.268-5.604c0.006-0.121,0.028-0.313,0.059-0.429l1.583-6.001c-0.486-0.685-1.693-1.892-2.378-2.377  l-6,1.582c-0.115,0.03-0.233,0.049-0.352,0.055c-2.31,0.127-4.675-1.254-5.682-3.263c-0.008-0.017-0.037-0.078-0.044-0.095  l-2.146-5.169c-0.017-0.041-0.033-0.082-0.046-0.124c-0.689-2.095,0.026-4.79,1.664-6.268c0.089-0.081,0.24-0.2,0.345-0.261  l5.349-3.116c0.061-0.312,0.125-0.816,0.125-1.498c0-0.715-0.071-1.234-0.135-1.542l-5.464-3.543  c-0.078-0.05-0.152-0.107-0.221-0.169c-1.637-1.479-2.352-4.173-1.663-6.268c0.006-0.019,0.031-0.086,0.038-0.105l2.148-5.171  c0.016-0.038,0.033-0.075,0.051-0.112c0.991-1.979,3.409-3.377,5.607-3.267c0.12,0.006,0.311,0.028,0.426,0.059l6.001,1.583  c0.685-0.486,1.892-1.693,2.376-2.378l-1.582-6c-0.03-0.115-0.049-0.233-0.055-0.352c-0.117-2.283,1.288-4.693,3.264-5.682  c0.017-0.008,0.078-0.037,0.094-0.044l5.169-2.146c0.041-0.017,0.083-0.033,0.125-0.046c2.079-0.683,4.82,0.061,6.267,1.664  c0.081,0.089,0.2,0.24,0.261,0.345l3.11,5.337c0.32,0.064,0.869,0.137,1.693,0.137c0.826,0,1.375-0.074,1.694-0.137l3.11-5.337  c0.061-0.104,0.131-0.2,0.211-0.289c1.515-1.678,4.239-2.402,6.317-1.72c0.023,0.008,0.096,0.035,0.12,0.043L59.5,7.961  c0.038,0.016,0.075,0.033,0.111,0.051c1.976,0.989,3.38,3.398,3.268,5.604c-0.006,0.121-0.028,0.313-0.059,0.429l-1.583,6.001  c0.486,0.685,1.693,1.892,2.378,2.377l6-1.583c0.119-0.031,0.241-0.05,0.364-0.056c2.269-0.125,4.679,1.286,5.67,3.264  c0.008,0.017,0.037,0.078,0.044,0.095l1.405,3.383c0.371,0.893-0.053,1.917-0.946,2.287c-0.893,0.371-1.917-0.053-2.287-0.946  l-1.377-3.32c-0.329-0.651-1.355-1.267-2.17-1.272l-6.421,1.693c-0.214,0.056-0.437,0.07-0.657,0.045  c-1.729-0.209-5.389-3.87-5.594-5.596c-0.026-0.219-0.011-0.44,0.045-0.653l1.689-6.408c-0.024-0.848-0.608-1.822-1.292-2.192  l-5.034-2.092c-0.106-0.032-0.315-0.063-0.546-0.063c-0.701,0-1.46,0.287-1.888,0.705l-3.339,5.73  c-0.129,0.222-0.306,0.412-0.517,0.558c-0.984,0.681-3.037,0.755-3.874,0.755s-2.89-0.073-3.874-0.754  c-0.211-0.146-0.387-0.336-0.516-0.558L35.17,9.73c-0.619-0.583-1.743-0.857-2.467-0.645l-5.033,2.088  c-0.649,0.328-1.264,1.353-1.272,2.169l1.693,6.422c0.056,0.214,0.072,0.437,0.045,0.657c-0.209,1.729-3.87,5.388-5.595,5.594  c-0.219,0.026-0.441,0.01-0.653-0.045l-6.406-1.689c-0.856,0.026-1.824,0.609-2.194,1.292l-2.093,5.034  c-0.221,0.683,0.066,1.833,0.631,2.422l5.812,3.768c0.164,0.106,0.309,0.239,0.429,0.394c0.735,0.945,0.815,2.951,0.815,3.769  c0,0.797-0.075,2.754-0.774,3.715c-0.143,0.196-0.325,0.361-0.535,0.483l-5.719,3.333c-0.585,0.624-0.863,1.722-0.646,2.468  l2.088,5.033c0.335,0.663,1.341,1.267,2.168,1.272l6.423-1.693c0.214-0.056,0.438-0.071,0.657-0.045  c1.729,0.209,5.389,3.87,5.594,5.596c0.026,0.219,0.011,0.44-0.045,0.653l-1.689,6.408c0.025,0.866,0.634,1.864,1.336,2.215  c0.864,0.433,1.214,1.484,0.782,2.348C28.213,73.359,27.595,73.713,26.954,73.713z"></path></svg>