<svg fill="#FFFFFF" xmlns:dc="http://purl.org/dc/elements/1.1/" xmlns:cc="http://creativecommons.org/ns#" xmlns:rdf="http://www.w3.org/1999/02/22-rdf-syntax-ns#" xmlns:svg="http://www.w3.org/2000/svg" xmlns="http://www.w3.org/2000/svg" xmlns:sodipodi="http://sodipodi.sourceforge.net/DTD/sodipodi-0.dtd" xmlns:inkscape="http://www.inkscape.org/namespaces/inkscape" version="1.1" x="0px" y="0px" viewBox="0 0 100 100"><g transform="translate(0,-952.36218)"><path style="text-indent:0;text-transform:none;direction:ltr;block-progression:tb;baseline-shift:baseline;color:#000000;enable-background:accumulate;" d="m 8,957.36625 a 3.0003,3.0001643 0 0 0 -3,2.99987 l 0,83.99618 a 3.0003,3.0001643 0 0 0 3,2.9999 l 84,0 a 3.0003,3.0001643 0 0 0 3,-2.9999 l 0,-83.99618 a 3.0003,3.0001643 0 0 0 -2.6875,-2.99987 3.0003,3.0001643 0 0 0 -0.3125,0 l -84,0 z m 3,5.99973 78,0 0,77.99652 -78,0 0,-77.99652 z m 15.96875,1.93741 A 3.0003,3.0001643 0 0 0 24,968.36575 l 0,40.52945 c -3.478731,1.2483 -6,4.5842 -6,8.4683 0,3.8842 2.521269,7.22 6,8.4684 l 0,10.5308 a 3.0003,3.0001643 0 1 0 6,0 l 0,-10.5308 c 3.478731,-1.2484 6,-4.5842 6,-8.4684 0,-3.8841 -2.521269,-7.22 -6,-8.4683 l 0,-40.52945 a 3.0003,3.0001643 0 0 0 -3.03125,-3.06236 z m 23,0 A 3.0003,3.0001643 0 0 0 47,968.36575 l 0,27.53001 c -3.478731,1.24835 -6,4.58414 -6,8.46834 0,3.8842 2.521269,7.22 6,8.4684 l 0,23.5302 a 3.0003,3.0001643 0 1 0 6,0 l 0,-23.5302 c 3.478731,-1.2484 6,-4.5842 6,-8.4684 0,-3.8842 -2.521269,-7.21999 -6,-8.46834 l 0,-27.53001 a 3.0003,3.0001643 0 0 0 -3.03125,-3.06236 z m 23,0 A 3.0003,3.0001643 0 0 0 70,968.36575 l 0,40.52945 c -3.478731,1.2483 -6,4.5842 -6,8.4683 0,3.8842 2.521269,7.22 6,8.4684 l 0,10.5308 a 3.0003,3.0001643 0 1 0 6,0 l 0,-10.5308 c 3.478731,-1.2484 6,-4.5842 6,-8.4684 0,-3.8841 -2.521269,-7.22 -6,-8.4683 l 0,-40.52945 a 3.0003,3.0001643 0 0 0 -3.03125,-3.06236 z M 50,1001.3643 c 1.692388,0 3,1.3075 3,2.9998 0,1.6923 -1.307612,2.9999 -3,2.9999 -1.692387,0 -3,-1.3076 -3,-2.9999 0,-1.6923 1.307613,-2.9998 3,-2.9998 z m -23,12.9994 c 1.692387,0 3,1.3075 3,2.9998 0,1.6924 -1.307613,2.9999 -3,2.9999 -1.692388,0 -3,-1.3075 -3,-2.9999 0,-1.6923 1.307612,-2.9998 3,-2.9998 z m 46,0 c 1.692388,0 3,1.3075 3,2.9998 0,1.6924 -1.307612,2.9999 -3,2.9999 -1.692387,0 -3,-1.3075 -3,-2.9999 0,-1.6923 1.307613,-2.9998 3,-2.9998 z" fill="#FFFFFF" fill-opacity="1" stroke="none" marker="none" visibility="visible" display="inline" overflow="visible"></path></g></svg>