<svg fill="#FFFFFF" xmlns="http://www.w3.org/2000/svg" xmlns:xlink="http://www.w3.org/1999/xlink" version="1.1" x="0px" y="0px" viewBox="0 0 100 100" enable-background="new 0 0 100 100" xml:space="preserve"><g><path d="M24.271,44.491c-0.21-0.53-0.636-0.945-1.171-1.142l-3.156-1.192C19.724,42.077,19.491,42,19.256,42h-4.208   c-0.956,0-1.778,0.713-1.962,1.651l-1.052,5.381c-0.204,1.036,0.434,2.06,1.455,2.328c1.073,0.281,2.285,0.735,2.841,1.044   c0.208,0.639,0.73,1.337,1.964,1.68c-0.094,1.226-0.617,2.534-0.829,2.967c-0.381,0.767-0.231,1.692,0.373,2.3   C18.111,59.627,19.567,61,21.36,61c1.808,0,2.741-1.678,3.643-3.3c0.297-0.535,0.705-1.268,0.927-1.491   c0.698-0.697,1.308-1.341,1.698-2.14c0.667-1.367,0.426-2.823-0.636-3.884C26.497,49.636,25.185,46.797,24.271,44.491z    M23.1,53.382c-0.298,0.298-0.568,0.661-0.822,1.054c0.019-0.236,0.029-0.475,0.029-0.715c0-1.199-0.429-2.705-2.387-3.34   c-0.395-0.697-1.342-1.573-3.615-2.371L16.694,46h2.207l1.989,0.764c0.722,1.759,1.934,4.531,2.932,5.835   C23.599,52.865,23.272,53.21,23.1,53.382z"></path><path d="M84.947,46.341C84.969,45.803,85,45.267,85,44.724c0-22.76-18.517-41.276-41.276-41.276S2.447,21.963,2.447,44.724   S20.964,86,43.724,86c1.086,0,2.161-0.046,3.225-0.131C52.004,93.19,60.449,98,70,98c15.439,0,28-12.561,28-28   C98,60.054,92.783,51.309,84.947,46.341z M43.724,7.705c2.925,0,5.769,0.352,8.5,0.996c-0.102,0.392-0.267,0.893-0.396,1.221   c-0.025,0.02-0.052,0.04-0.08,0.061c-1.151,0.887-3.078,2.37-2.782,4.441c0.289,2.024,2.46,3.284,5.631,4.552   c1.326,0.531,3.039,0.519,4.417,0.51c0.169-0.001,0.368-0.002,0.549-0.002c0.508,0.524,1.252,1.296,1.634,1.692   c0.291,0.636,0.565,1.297,0.786,1.882l-1.125-1.349c-0.682-0.817-1.862-1.008-2.765-0.442c-0.966,0.604-2.146,1.325-2.5,1.521   c-0.728,0.265-3.75,1.41-4.467,2.365c-0.561,0.749-1.893,4.871,0.192,6.766c0.423,0.384,0.966,0.693,1.524,0.938   c-0.286,0.572-0.549,1.095-0.761,1.509c-0.829-0.061-1.983-0.217-2.607-0.373c-0.517-0.578-1.429-1.298-3.115-2.58   c-0.432-0.328-1.01-0.768-1.22-0.947c-0.444-0.533-1.086-0.989-6.272-1.821c-0.28-0.044-0.57-0.032-0.847,0.034l-3.915,0.965   c-0.289,0.072-0.559,0.202-0.793,0.384c-1.134,0.877-2.753,1.784-3.837,2.106c0.045-0.371,0.035-0.786-0.111-1.224   c-0.259-0.775-0.613-2.169-6.236-3.521C22.967,27.35,22.8,27,22.632,27h-4.933l-3.257-5.216   C21.218,13.028,31.82,7.705,43.724,7.705z M31,69.128v2.004c0,0.13-0.125,0.493-0.188,0.733c-0.268,1.025-0.609,2.293,0.158,3.391   c-0.073,0.071-0.156-0.166-0.239-0.083C30.293,75.611,29.992,75,29.785,76H28.83c-0.799,0-1.486,0.758-1.851,1.409   C14.961,71.286,6.705,59.111,6.705,44.724c0-6.82,1.862-13.211,5.092-18.704l2.847,4.889C15.027,31.559,15.725,32,16.48,32h5.895   c0.937,0,1.902,0.479,2.597,0.723c-0.107,0.651-0.097,1.456,0.412,2.247c0.54,0.84,1.454,1.34,2.718,1.509   c2.769,0.378,6.177-1.876,7.442-2.798l3.071-0.759c1.451,0.243,3.083,0.565,3.727,0.758c0.284,0.244,0.713,0.571,1.44,1.124   c0.661,0.502,1.981,1.506,2.42,1.929c0.633,1.115,2.065,1.379,3.054,1.561c1.434,0.264,2.493,0.368,3.287,0.368   c1.832,0,2.245-0.552,2.549-0.957c0.126-0.168,0.36-0.48,2.685-5.219c0.294-0.599,0.288-1.3-0.011-1.896   c-0.3-0.596-0.864-1.017-1.52-1.136c-0.626-0.115-1.375-0.343-1.795-0.533c0.002-0.299,0.062-0.718,0.136-1.059   c0.778-0.375,2.182-0.967,2.513-1.089c0.188-0.062,0.368-0.123,1.669-0.915l1.613,1.936c0.568,0.682,1.5,0.941,2.335,0.648   c0.691-0.24,2.394-0.895,3.281-1.783c0.861-0.86,1.486-2.155-1.098-7.61c-0.099-0.208-0.231-0.399-0.39-0.565   c0,0-2.1-2.181-2.426-2.506c-0.761-0.761-1.688-0.753-3.1-0.744c-0.786,0.006-2.256,0.015-2.806-0.205   c-1.245-0.499-2.01-0.882-2.476-1.155c0.246-0.207,0.501-0.403,0.643-0.512c0.405-0.313,0.674-0.52,0.909-0.833   c0.251-0.335,0.744-1.457,1.049-2.615c14.064,5.098,24.181,18.487,24.426,34.232C77.424,42.764,73.8,42,70,42   c-10.464,0-19.599,5.773-24.405,14.298c-0.29-0.068-0.584-0.138-0.874-0.209l-2.598-3.475c-0.455-0.609-1.209-0.929-1.954-0.84   c-0.462,0.055-2.841,0.401-4.306,1.866c-0.202,0.202-0.366,0.238-0.507,0.386C35.319,54.066,35.285,54,35.253,54h-3.229   C30.848,54,30,55.226,30,56.402v4.591C30,64.121,33.846,64,35.172,64c0.007,0,0.015,0,0.023,0c0.469,0,2.358,0.477,4.055,0.88   c0.408,0.447,0.792,1.04,0.981,1.349c-0.062,0.144-0.153,0.311-0.221,0.45c-0.308,0.625-0.688,1.389-0.717,2.339   c-0.002,0.001-0.003-0.003-0.004-0.002c-0.433-0.085-1.378-0.436-2.134-0.794c-0.084-0.04-0.172-0.076-0.26-0.104l-3.153-1.017   c-0.649-0.208-1.337-0.097-1.886,0.304C31.305,67.808,31,68.447,31,69.128z M42.964,62.727c-0.364-0.441-0.749-0.857-1.116-1.218   c-0.273-0.268-0.613-0.458-0.985-0.55c-1.318-0.324-4.584-1.078-5.734-1.078c-0.421,0-1.128-0.009-1.128-0.027V58h1.335   c1.623,0,2.284-0.303,3.108-1.17c0.12-0.127,0.259-0.141,0.43-0.311c0.125-0.126,0.38-0.188,0.679-0.3l2.212,2.991   c0.291,0.39,0.706,0.684,1.176,0.805c0.225,0.058,0.509,0.129,0.824,0.208C43.46,61.039,43.193,61.875,42.964,62.727z    M43.724,81.742c-3.905,0-7.668-0.612-11.205-1.738c0.307-0.294,0.526-0.605,0.687-0.839c0.163-0.237,0.305-0.442,0.531-0.667   c0.413-0.414,0.579-0.542,0.789-0.705c0.333-0.258,0.633-0.5,1.192-1.059c1.302-1.304,1.093-2.473,0.852-3.054   c-0.315-0.761-0.88-1.159-1.5-1.368c0.021-0.096,0.042-0.192,0.06-0.289l0.329,0.106c0.844,0.393,2.656,1.161,3.936,1.161   c1.003,0,1.955-0.434,2.7-1.096c0.263,3.376,1.125,6.585,2.484,9.522C44.293,81.723,44.011,81.742,43.724,81.742z M70,92   c-12.131,0-22-9.869-22-22s9.869-22,22-22s22,9.869,22,22S82.131,92,70,92z"></path><path d="M85.782,64.895c-1.102-5.553-4.89-9.002-9.887-9.002c-2.475,0-4.692,0.94-6.358,2.547   c-1.667-1.606-3.885-2.547-6.353-2.547c-5,0-8.789,3.439-9.887,8.976c-1.3,6.559,2.404,17.429,14.572,21.62   c0.458,0.279,0.994,0.438,1.56,0.438c0.063,0,0.126-0.002,0.19-0.006l0.218-0.014c0.454-0.028,0.882-0.158,1.26-0.366   C83.351,82.379,87.085,71.47,85.782,64.895z M69.558,80.721c-8.451-3.06-11.214-10.462-10.376-14.686   c0.375-1.89,1.373-4.143,4.001-4.143c1.96,0,2.987,1.537,3.326,3.012c-0.042,1.515,1.066,2.847,2.601,3.053   c1.095,0.14,2.14-0.321,2.773-1.141c0.423-0.519,0.673-1.176,0.677-1.877c0.332-1.492,1.356-3.047,3.333-3.047   c2.624,0,3.625,2.268,4.001,4.169C80.731,70.275,77.978,77.653,69.558,80.721z"></path></g></svg>