<svg fill="#FFFFFF" xmlns="http://www.w3.org/2000/svg" xmlns:xlink="http://www.w3.org/1999/xlink" version="1.1" x="0px" y="0px" viewBox="0 0 127.481 127.481" enable-background="new 0 0 127.481 127.481" xml:space="preserve"><g><g><g><g><path fill="#FFFFFF" d="M65.138,84.303c-8.615,0-15.624-9.238-15.624-20.592s7.009-20.592,15.624-20.592      c0.001,0,0.002,0,0.003,0c2.5,0,4.982,0.786,7.178,2.273c1.143,0.774,1.442,2.329,0.668,3.472s-2.328,1.441-3.472,0.668      c-1.384-0.938-2.856-1.413-4.375-1.413c-0.001,0-0.001,0-0.002,0c-5.858,0-10.625,6.995-10.625,15.592      s4.766,15.592,10.624,15.592c1.66,0,3.256-0.564,4.745-1.676c1.107-0.827,2.673-0.599,3.499,0.507      c0.826,1.106,0.599,2.673-0.507,3.499C70.536,83.38,67.861,84.303,65.138,84.303z"></path></g><g><path fill="#FFFFFF" d="M67.934,63.216H45.383c-1.381,0-2.5-1.119-2.5-2.5s1.119-2.5,2.5-2.5h22.551c1.381,0,2.5,1.119,2.5,2.5      S69.314,63.216,67.934,63.216z"></path></g><g><path fill="#FFFFFF" d="M67.934,70.054H45.383c-1.381,0-2.5-1.119-2.5-2.5s1.119-2.5,2.5-2.5h22.551c1.381,0,2.5,1.119,2.5,2.5      S69.314,70.054,67.934,70.054z"></path></g></g><g><path fill="#FFFFFF" d="M15.207,59.217c-0.118,0-0.236-0.008-0.356-0.025c-1.367-0.195-2.316-1.462-2.122-2.829     c3.599-25.199,25.537-44.202,51.031-44.202c1.381,0,2.5,1.119,2.5,2.5s-1.119,2.5-2.5,2.5c-23.021,0-42.832,17.157-46.081,39.909     C17.501,58.317,16.431,59.217,15.207,59.217z"></path></g><g><path fill="#FFFFFF" d="M53.852,29.811c-0.543,0-1.089-0.176-1.548-0.538c-1.083-0.856-1.269-2.428-0.413-3.511l8.841-11.195     L50.912,4.221c-0.951-1.001-0.91-2.583,0.092-3.534c1-0.951,2.583-0.91,3.534,0.092l12.804,13.487L55.815,28.86     C55.322,29.485,54.59,29.811,53.852,29.811z"></path></g><g><path fill="#FFFFFF" d="M56.72,114.778c-0.118,0-0.236-0.008-0.356-0.025c-25.199-3.598-44.202-25.537-44.202-51.031     c0-1.381,1.119-2.5,2.5-2.5s2.5,1.119,2.5,2.5c0,23.022,17.157,42.832,39.909,46.081c1.367,0.195,2.316,1.461,2.122,2.829     C59.014,113.878,57.944,114.778,56.72,114.778z"></path></g><g><path fill="#FFFFFF" d="M2.5,77.257c-0.662,0-1.322-0.261-1.813-0.779c-0.951-1.001-0.91-2.583,0.092-3.534l13.487-12.803     L28.86,71.666c1.083,0.855,1.269,2.428,0.413,3.511c-0.856,1.084-2.428,1.268-3.511,0.413l-11.195-8.84L4.221,76.57     C3.738,77.029,3.118,77.257,2.5,77.257z"></path></g><g><path fill="#FFFFFF" d="M63.723,115.32c-1.381,0-2.5-1.119-2.5-2.5s1.119-2.5,2.5-2.5c23.021,0,42.832-17.157,46.08-39.909     c0.195-1.367,1.456-2.321,2.829-2.122c1.367,0.195,2.316,1.461,2.122,2.829C111.155,96.317,89.217,115.32,63.723,115.32z"></path></g><g><path fill="#FFFFFF" d="M74.758,127.481c-0.662,0-1.322-0.261-1.813-0.779l-12.804-13.487l11.525-14.594     c0.856-1.084,2.428-1.268,3.511-0.413c1.083,0.855,1.269,2.428,0.413,3.511l-8.84,11.195l9.821,10.345     c0.951,1.001,0.91,2.583-0.092,3.534C75.996,127.253,75.376,127.481,74.758,127.481z"></path></g><g><path fill="#FFFFFF" d="M112.82,66.259c-1.381,0-2.5-1.119-2.5-2.5c0-23.022-17.157-42.832-39.908-46.081     c-1.367-0.195-2.316-1.461-2.122-2.829c0.195-1.367,1.455-2.319,2.829-2.122c25.199,3.598,44.201,25.537,44.201,51.031     C115.32,65.14,114.201,66.259,112.82,66.259z"></path></g><g><path fill="#FFFFFF" d="M113.216,67.34L98.622,55.815c-1.083-0.855-1.269-2.428-0.413-3.511c0.856-1.084,2.429-1.267,3.511-0.413     l11.195,8.84l10.345-9.821c1.001-0.95,2.585-0.908,3.534,0.092c0.951,1.001,0.91,2.583-0.092,3.534L113.216,67.34z"></path></g></g></g></svg>