<svg fill="#FFFFFF" xmlns="http://www.w3.org/2000/svg" xmlns:xlink="http://www.w3.org/1999/xlink" version="1.1" x="0px" y="0px" viewBox="0 0 90 90" enable-background="new 0 0 90 90" xml:space="preserve"><g><path d="M81.428,71.428L68.896,60.413c5.796-8.583,7.867-19.603,4.798-29.322C69.16,16.739,55.6,8.835,44.173,7.368   c-0.926-0.126-1.781,0.463-2.018,1.357c-0.237,0.893,0.225,1.825,1.08,2.178c10.415,4.296,17.69,12.075,19.959,21.345   c0.816,3.324,1.9,11.49-3.802,19.813L37.974,33.238l7.874-9.11c0.469-0.546,0.582-1.313,0.283-1.967   c-0.296-0.655-0.945-1.08-1.666-1.084l-14.651-0.11c-0.473,0.007-1.066,0.234-1.42,0.651L11.582,41.451   c-0.319,0.375-0.473,0.86-0.431,1.352c0.042,0.489,0.278,0.941,0.655,1.257l9.93,8.295c0.778,0.65,1.935,0.548,2.589-0.22   l6.961-8.192l18.262,16.314c-2.28,0.881-4.749,1.353-7.416,1.353c-5.174,0-10.986-1.771-16.366-4.984   c-0.775-0.463-1.768-0.299-2.353,0.39L7.912,75.287c-0.328,0.388-0.483,0.896-0.426,1.401c0.057,0.505,0.321,0.965,0.728,1.27   l6.756,5.057c0.331,0.247,0.719,0.366,1.104,0.366c0.532,0,1.059-0.229,1.423-0.669l10.024-12.125   c3.91,1.837,9.911,3.583,16.466,3.583c5.797,0,10.866-1.367,15.064-4.061c0.294-0.188,0.566-0.404,0.854-0.602l13.114,11.711   c0.339,0.304,0.776,0.468,1.229,0.468c0.042,0,0.085-0.001,0.127-0.004c0.496-0.034,0.958-0.268,1.28-0.647l5.959-7.029   C82.267,73.239,82.183,72.092,81.428,71.428z M32.334,39.932c-0.368-0.331-0.855-0.484-1.354-0.466   c-0.497,0.035-0.958,0.268-1.28,0.646l-7.001,8.239l-7.102-5.931L30.65,24.661l9.796,0.074l-6.459,7.476   c-0.663,0.767-0.583,1.924,0.177,2.592l22.941,20.161c-1.242,1.376-2.588,2.539-4.037,3.489L32.334,39.932z M57.061,67.004   c-3.594,2.306-7.992,3.476-13.073,3.476c-6.69,0-12.835-2.059-16.065-3.823c-0.777-0.426-1.742-0.238-2.306,0.444l-9.843,11.905   l-3.779-2.827l13.241-15.606c5.613,3.096,11.426,4.724,16.899,4.724c7.229,0,13.534-2.914,18.233-8.426   c8.88-10.412,7.441-21.305,6.409-25.502c-1.321-5.394-4.117-10.325-8.104-14.488c5.094,3.55,9.399,8.657,11.505,15.32   C74.128,44.717,68.49,59.679,57.061,67.004z M74.066,77.206l-11.192-9.995c1.364-1.186,2.623-2.476,3.778-3.854l10.978,9.646   L74.066,77.206z"></path></g></svg>