<svg fill="#FFFFFF" xmlns="http://www.w3.org/2000/svg" xmlns:xlink="http://www.w3.org/1999/xlink" version="1.1" x="0px" y="0px" viewBox="0 0 100 100" style="enable-background:new 0 0 100 100;" xml:space="preserve"><g style="" display="none"><rect x="-897" y="-527.014" style="" width="1280" height="1310.409" display="inline" fill="#FFFFFF"></rect></g><g><path d="M11.744,32.43c0,3.71,3.035,6.745,6.745,6.745h0.813c3.276,0,5.932-2.656,5.932-5.932v-2.323   c0-3.71-3.035-6.745-6.745-6.745s-6.745,3.035-6.745,6.745V32.43z M15.929,30.919c0-1.388,1.172-2.56,2.56-2.56   s2.56,1.172,2.56,2.56v2.323c0,0.964-0.784,1.748-1.748,1.748h-0.813c-1.388,0-2.56-1.172-2.56-2.56V30.919z"></path><path d="M7.615,68.001c1.445,0,2.615-1.171,2.615-2.615v0V49.429c0-1.774,1.444-3.217,3.217-3.217h10.082   c1.774,0,3.217,1.443,3.217,3.217v15.957v0c0,1.445,1.171,2.615,2.615,2.615s2.615-1.171,2.615-2.615V49.429   c0-4.658-3.789-8.448-8.448-8.448H13.448C8.789,40.981,5,44.771,5,49.429v15.957C5,66.83,6.171,68.001,7.615,68.001z"></path><path d="M24.029,65.386c-0.306-0.125-0.639-0.197-0.99-0.197h-9.101c-0.351,0-0.684,0.072-0.99,0.197   c-0.953,0.39-1.625,1.325-1.625,2.419v20.821c0,1.445,1.171,2.615,2.615,2.615s2.615-1.171,2.615-2.615v0V70.42h3.87v18.206v0   c0,1.445,1.171,2.615,2.615,2.615s2.615-1.171,2.615-2.615V67.804C25.654,66.711,24.982,65.776,24.029,65.386z"></path><path d="M50,24.174c-3.71,0-6.745,3.035-6.745,6.745v1.511c0,3.71,3.035,6.745,6.745,6.745h0.813c3.276,0,5.932-2.656,5.932-5.932   v-2.323C56.745,27.21,53.71,24.174,50,24.174z M52.56,33.243c0,0.964-0.784,1.748-1.748,1.748H50c-1.388,0-2.56-1.172-2.56-2.56   v-1.511c0-1.388,1.172-2.56,2.56-2.56s2.56,1.172,2.56,2.56V33.243z"></path><path d="M36.511,49.429v15.957c0,1.445,1.171,2.615,2.615,2.615c1.445,0,2.615-1.171,2.615-2.615v0V49.429   c0-1.774,1.444-3.217,3.217-3.217h10.082c1.774,0,3.217,1.443,3.217,3.217v15.957v0c0,1.445,1.171,2.615,2.615,2.615   c1.445,0,2.615-1.171,2.615-2.615V49.429c0-4.658-3.789-8.448-8.448-8.448H44.959C40.301,40.981,36.511,44.771,36.511,49.429z"></path><path d="M51.935,88.625c0,1.445,1.171,2.615,2.615,2.615c1.445,0,2.615-1.171,2.615-2.615V67.804c0-1.094-0.672-2.028-1.625-2.419   c-0.306-0.125-0.639-0.197-0.99-0.197H45.45c-0.351,0-0.684,0.072-0.99,0.197c-0.953,0.39-1.625,1.325-1.625,2.419v20.821   c0,1.445,1.171,2.615,2.615,2.615c1.445,0,2.615-1.171,2.615-2.615v0V70.42h3.87V88.625L51.935,88.625z"></path><path d="M74.766,30.919v1.511c0,3.71,3.035,6.745,6.745,6.745h0.813c3.276,0,5.932-2.656,5.932-5.932v-2.323   c0-3.71-3.035-6.745-6.745-6.745C77.802,24.174,74.766,27.21,74.766,30.919z M78.951,30.919c0-1.388,1.172-2.56,2.56-2.56   s2.56,1.172,2.56,2.56v2.323c0,0.964-0.784,1.748-1.748,1.748h-0.813c-1.388,0-2.56-1.172-2.56-2.56V30.919z"></path><path d="M95,65.386V49.429c0-4.658-3.789-8.448-8.448-8.448H76.471c-4.659,0-8.448,3.79-8.448,8.448v15.957   c0,1.445,1.171,2.615,2.615,2.615s2.615-1.171,2.615-2.615v0V49.429c0-1.774,1.444-3.217,3.217-3.217h10.082   c1.774,0,3.217,1.443,3.217,3.217v15.957v0c0,1.445,1.171,2.615,2.615,2.615S95,66.83,95,65.386z"></path><path d="M88.677,67.804c0-1.094-0.672-2.028-1.625-2.419c-0.306-0.125-0.639-0.197-0.99-0.197h-9.101   c-0.351,0-0.684,0.072-0.99,0.197c-0.953,0.39-1.625,1.325-1.625,2.419v20.821c0,1.445,1.171,2.615,2.615,2.615   c1.445,0,2.615-1.171,2.615-2.615v0V70.42h3.87v18.206v0c0,1.445,1.171,2.615,2.615,2.615s2.615-1.171,2.615-2.615V67.804z"></path><path d="M34.244,23.76h0.813c3.276,0,5.932-2.656,5.932-5.932v-2.323c0-3.71-3.035-6.745-6.745-6.745   c-3.71,0-6.745,3.035-6.745,6.745v1.511C27.499,20.725,30.535,23.76,34.244,23.76z M31.684,15.504c0-1.388,1.172-2.56,2.56-2.56   c1.388,0,2.56,1.172,2.56,2.56v2.323c0,0.964-0.784,1.748-1.748,1.748h-0.813c-1.388,0-2.56-1.172-2.56-2.56V15.504z"></path><path d="M72.5,17.828v-2.323c0-3.71-3.035-6.745-6.745-6.745h0c-3.71,0-6.745,3.035-6.745,6.745v1.511   c0,3.71,3.035,6.745,6.745,6.745h0.813C69.844,23.76,72.5,21.104,72.5,17.828z M68.316,17.828c0,0.964-0.784,1.748-1.748,1.748   h-0.813c-1.388,0-2.56-1.172-2.56-2.56v-1.511c0-1.388,1.172-2.56,2.56-2.56c1.388,0,2.56,1.172,2.56,2.56V17.828z"></path></g></svg>